<?xml version="1.0" encoding="UTF-8"?>
<svg width="500" height="500" viewBox="0 0 500 500" fill="none" xmlns="http://www.w3.org/2000/svg">
  <g opacity="0.3">
    <path d="M455.2 87.5C455.2 87.5 412.5 160.9 368.5 157.1C324.5 153.3 348.3 87.5 348.3 87.5H455.2Z" fill="url(#paint0_linear)"/>
    <path d="M42.1 412.5C42.1 412.5 84.8 339.1 128.8 342.9C172.8 346.7 149 412.5 149 412.5H42.1Z" fill="url(#paint1_linear)"/>
    <path d="M42.1 87.5C42.1 87.5 84.8 160.9 128.8 157.1C172.8 153.3 149 87.5 149 87.5H42.1Z" fill="url(#paint2_linear)"/>
    <path d="M455.2 412.5C455.2 412.5 412.5 339.1 368.5 342.9C324.5 346.7 348.3 412.5 348.3 412.5H455.2Z" fill="url(#paint3_linear)"/>
    <circle cx="250" cy="250" r="120" stroke="url(#paint4_linear)" stroke-width="2" stroke-dasharray="12 12"/>
    <circle cx="250" cy="250" r="175" stroke="url(#paint5_linear)" stroke-width="1.5" stroke-dasharray="8 8"/>
  </g>
  <defs>
    <linearGradient id="paint0_linear" x1="411.8" y1="122.3" x2="349.6" y2="122.3" gradientUnits="userSpaceOnUse">
      <stop stop-color="#4A6CF7"/>
      <stop offset="1" stop-color="#4A6CF7" stop-opacity="0"/>
    </linearGradient>
    <linearGradient id="paint1_linear" x1="85.5" y1="377.7" x2="147.8" y2="377.7" gradientUnits="userSpaceOnUse">
      <stop stop-color="#4A6CF7"/>
      <stop offset="1" stop-color="#4A6CF7" stop-opacity="0"/>
    </linearGradient>
    <linearGradient id="paint2_linear" x1="85.5" y1="122.3" x2="147.8" y2="122.3" gradientUnits="userSpaceOnUse">
      <stop stop-color="#4A6CF7"/>
      <stop offset="1" stop-color="#4A6CF7" stop-opacity="0"/>
    </linearGradient>
    <linearGradient id="paint3_linear" x1="411.8" y1="377.7" x2="349.6" y2="377.7" gradientUnits="userSpaceOnUse">
      <stop stop-color="#4A6CF7"/>
      <stop offset="1" stop-color="#4A6CF7" stop-opacity="0"/>
    </linearGradient>
    <linearGradient id="paint4_linear" x1="250" y1="130" x2="250" y2="370" gradientUnits="userSpaceOnUse">
      <stop stop-color="#4A6CF7"/>
      <stop offset="1" stop-color="#4A6CF7" stop-opacity="0.2"/>
    </linearGradient>
    <linearGradient id="paint5_linear" x1="250" y1="75" x2="250" y2="425" gradientUnits="userSpaceOnUse">
      <stop stop-color="#4A6CF7"/>
      <stop offset="1" stop-color="#4A6CF7" stop-opacity="0.2"/>
    </linearGradient>
  </defs>
</svg>
