<svg xmlns="http://www.w3.org/2000/svg" viewBox="0 0 24 24" fill="none" stroke="#22c55e" stroke-width="1.5" stroke-linecap="round" stroke-linejoin="round">
  <path d="M8.56 3.69a9 9 0 0 0-2.92 1.95M3.69 8.56A9 9 0 0 0 3 12m.69 3.44a9 9 0 0 0 1.95 2.92m2.92 1.95A9 9 0 0 0 12 21m3.44-.69a9 9 0 0 0 2.92-1.95m1.95-2.92A9 9 0 0 0 21 12m-.69-3.44a9 9 0 0 0-1.95-2.92m-2.92-1.95A9 9 0 0 0 12 3" />
  <circle cx="12" cy="7" r="3" />
  <path d="M10 14.66V17c0 .55.45 1 1 1h2c.55 0 1-.45 1-1v-2.34" />
  <path d="M9 12h6" />
  <path d="M12 12v5" />
</svg>
