<?xml version="1.0" encoding="UTF-8"?>
<svg width="500" height="500" viewBox="0 0 500 500" fill="none" xmlns="http://www.w3.org/2000/svg">
  <g opacity="0.3">
    <!-- Neurons -->
    <circle cx="150" cy="100" r="12" fill="#5E72E4"/>
    <circle cx="150" cy="175" r="12" fill="#5E72E4"/>
    <circle cx="150" cy="250" r="12" fill="#5E72E4"/>
    <circle cx="150" cy="325" r="12" fill="#5E72E4"/>
    <circle cx="150" cy="400" r="12" fill="#5E72E4"/>
    
    <circle cx="250" cy="125" r="15" fill="#11CDEF"/>
    <circle cx="250" cy="225" r="15" fill="#11CDEF"/>
    <circle cx="250" cy="325" r="15" fill="#11CDEF"/>
    
    <circle cx="350" cy="150" r="12" fill="#FB6340"/>
    <circle cx="350" cy="250" r="12" fill="#FB6340"/>
    <circle cx="350" cy="350" r="12" fill="#FB6340"/>
    
    <!-- Connections Layer 1 to 2 -->
    <line x1="156" y1="96" x2="244" y2="121" stroke="#5E72E4" stroke-width="1.5" opacity="0.5"/>
    <line x1="156" y1="103" x2="244" y2="128" stroke="#5E72E4" stroke-width="1.5" opacity="0.5"/>
    <line x1="156" y1="171" x2="244" y2="124" stroke="#5E72E4" stroke-width="1.5" opacity="0.5"/>
    <line x1="156" y1="178" x2="244" y2="131" stroke="#5E72E4" stroke-width="1.5" opacity="0.5"/>
    <line x1="156" y1="246" x2="244" y2="221" stroke="#5E72E4" stroke-width="1.5" opacity="0.5"/>
    <line x1="156" y1="253" x2="244" y2="228" stroke="#5E72E4" stroke-width="1.5" opacity="0.5"/>
    <line x1="156" y1="321" x2="244" y2="224" stroke="#5E72E4" stroke-width="1.5" opacity="0.5"/>
    <line x1="156" y1="328" x2="244" y2="231" stroke="#5E72E4" stroke-width="1.5" opacity="0.5"/>
    <line x1="156" y1="396" x2="244" y2="324" stroke="#5E72E4" stroke-width="1.5" opacity="0.5"/>
    <line x1="156" y1="403" x2="244" y2="331" stroke="#5E72E4" stroke-width="1.5" opacity="0.5"/>
    
    <!-- Connections Layer 2 to 3 -->
    <line x1="256" y1="121" x2="344" y2="146" stroke="#11CDEF" stroke-width="1.5" opacity="0.5"/>
    <line x1="256" y1="128" x2="344" y2="153" stroke="#11CDEF" stroke-width="1.5" opacity="0.5"/>
    <line x1="256" y1="221" x2="344" y2="146" stroke="#11CDEF" stroke-width="1.5" opacity="0.5"/>
    <line x1="256" y1="228" x2="344" y2="153" stroke="#11CDEF" stroke-width="1.5" opacity="0.5"/>
    <line x1="256" y1="221" x2="344" y2="246" stroke="#11CDEF" stroke-width="1.5" opacity="0.5"/>
    <line x1="256" y1="228" x2="344" y2="253" stroke="#11CDEF" stroke-width="1.5" opacity="0.5"/>
    <line x1="256" y1="321" x2="344" y2="246" stroke="#11CDEF" stroke-width="1.5" opacity="0.5"/>
    <line x1="256" y1="328" x2="344" y2="253" stroke="#11CDEF" stroke-width="1.5" opacity="0.5"/>
    <line x1="256" y1="321" x2="344" y2="346" stroke="#11CDEF" stroke-width="1.5" opacity="0.5"/>
    <line x1="256" y1="328" x2="344" y2="353" stroke="#11CDEF" stroke-width="1.5" opacity="0.5"/>
    
    <!-- Animated pulse effect -->
    <circle cx="250" cy="225" r="35" stroke="#11CDEF" stroke-width="2" opacity="0.2">
      <animate attributeName="r" from="15" to="35" dur="1.5s" begin="0s" repeatCount="indefinite"/>
      <animate attributeName="opacity" from="0.6" to="0" dur="1.5s" begin="0s" repeatCount="indefinite"/>
    </circle>
    
    <!-- Decorative elements -->
    <path d="M70,180 Q120,140 70,100 Q120,60 70,20" stroke="#5E72E4" stroke-width="2" fill="none" opacity="0.3"/>
    <path d="M430,180 Q380,140 430,100 Q380,60 430,20" stroke="#FB6340" stroke-width="2" fill="none" opacity="0.3"/>
    <path d="M70,480 Q120,440 70,400 Q120,360 70,300" stroke="#5E72E4" stroke-width="2" fill="none" opacity="0.3"/>
    <path d="M430,480 Q380,440 430,400 Q380,360 430,300" stroke="#FB6340" stroke-width="2" fill="none" opacity="0.3"/>
  </g>
</svg>
