<svg xmlns="http://www.w3.org/2000/svg" viewBox="0 0 1440 320" preserveAspectRatio="none">
  <path fill="#4f46e5" fill-opacity="0.05" d="M0,192L48,176C96,160,192,128,288,122.7C384,117,480,139,576,165.3C672,192,768,224,864,213.3C960,203,1056,149,1152,138.7C1248,128,1344,160,1392,176L1440,192L1440,320L1392,320C1344,320,1248,320,1152,320C1056,320,960,320,864,320C768,320,672,320,576,320C480,320,384,320,288,320C192,320,96,320,48,320L0,320Z"></path>
  <path fill="#0ea5e9" fill-opacity="0.05" d="M0,96L48,112C96,128,192,160,288,186.7C384,213,480,235,576,218.7C672,203,768,149,864,144C960,139,1056,181,1152,197.3C1248,213,1344,203,1392,197.3L1440,192L1440,320L1392,320C1344,320,1248,320,1152,320C1056,320,960,320,864,320C768,320,672,320,576,320C480,320,384,320,288,320C192,320,96,320,48,320L0,320Z"></path>
  <path fill="#8b5cf6" fill-opacity="0.05" d="M0,64L48,80C96,96,192,128,288,133.3C384,139,480,117,576,112C672,107,768,117,864,144C960,171,1056,213,1152,218.7C1248,224,1344,192,1392,176L1440,160L1440,320L1392,320C1344,320,1248,320,1152,320C1056,320,960,320,864,320C768,320,672,320,576,320C480,320,384,320,288,320C192,320,96,320,48,320L0,320Z"></path>
</svg>